<?xml version="1.0" encoding="UTF-8"?>
<!DOCTYPE svg PUBLIC "-//W3C//DTD SVG 1.1//EN" "http://www.w3.org/Graphics/SVG/1.1/DTD/svg11.dtd">
<!-- Creator: CorelDRAW 2020 (64-Bit) -->
<svg xmlns="http://www.w3.org/2000/svg" xml:space="preserve" width="210mm" height="297mm" version="1.1" style="shape-rendering:geometricPrecision; text-rendering:geometricPrecision; image-rendering:optimizeQuality; fill-rule:evenodd; clip-rule:evenodd"
viewBox="0 0 21000 29700"
 xmlns:xlink="http://www.w3.org/1999/xlink"
 xmlns:xodm="http://www.corel.com/coreldraw/odm/2003">
 <defs>
  <style type="text/css">
   <![CDATA[
    .fil1 {fill:none}
    .fil0 {fill:white}
   ]]>
  </style>
   <clipPath id="id0">
    <path d="M31659.54 5325.54c5143.61,0 9313.33,4169.72 9313.33,9313.33 0,5143.61 -4169.72,9313.33 -9313.33,9313.33 -5143.61,0 -9313.33,-4169.72 -9313.33,-9313.33 0,-5143.61 4169.72,-9313.33 9313.33,-9313.33z"/>
   </clipPath>
    <clipPath id="id1">
     <path d="M36624.45 6758.51c1162.69,734.08 2151.71,1718.13 2891.37,2876.88l0 10006.96c-319.24,500.22 -685.04,967.79 -1091.12,1396.88l-13530.32 0c-315.82,-333.71 -606.99,-690.9 -871.12,-1068.44l0 -10663.84c711.32,-1016.67 1620.23,-1884.79 2671.37,-2548.44l9929.82 0z"/>
    </clipPath>
     <clipPath id="id2">
      <rect x="24023.26" y="6758.51" width="15492.56" height="14280.72"/>
     </clipPath>
    <clipPath id="id3">
     <path d="M31659.54 5325.54c5143.61,0 9313.33,4169.72 9313.33,9313.33 0,5143.61 -4169.72,9313.33 -9313.33,9313.33 -5143.61,0 -9313.33,-4169.72 -9313.33,-9313.33 0,-5143.61 4169.72,-9313.33 9313.33,-9313.33z"/>
    </clipPath>
 </defs>
 <g id="Layer_x0020_1">
  <metadata id="CorelCorpID_0Corel-Layer"/>
  <path class="fil0" d="M31659.54 5325.54c5143.61,0 9313.33,4169.72 9313.33,9313.33 0,5143.61 -4169.72,9313.33 -9313.33,9313.33 -5143.61,0 -9313.33,-4169.72 -9313.33,-9313.33 0,-5143.61 4169.72,-9313.33 9313.33,-9313.33z"/>
  <g style="clip-path:url(#id0)">
   <g id="_294579776">
   </g>
   <g style="clip-path:url(#id1)">
    <image style="clip-path:url(#id2)" x="19941.79" y="3022.76" width="24341.66" height="24341.66" xlink:href="vite_Images\vite_ImgID1.png"/>
   </g>
   <g style="clip-path:url(#id3)">
   </g>
  </g>
  <path class="fil1" d="M31659.54 5325.54c5143.61,0 9313.33,4169.72 9313.33,9313.33 0,5143.61 -4169.72,9313.33 -9313.33,9313.33 -5143.61,0 -9313.33,-4169.72 -9313.33,-9313.33 0,-5143.61 4169.72,-9313.33 9313.33,-9313.33z"/>
 </g>
</svg>
